<?xml version="1.0" encoding="UTF-8" standalone="no"?>
<!-- Created with Inkscape (http://www.inkscape.org/) -->

<svg
   width="32"
   height="32"
   viewBox="0 0 8.4666662 8.4666667"
   version="1.1"
   id="svg1"
   inkscape:version="1.3.2 (091e20e, 2023-11-25, custom)"
   sodipodi:docname="favicon.svg"
   xmlns:inkscape="http://www.inkscape.org/namespaces/inkscape"
   xmlns:sodipodi="http://sodipodi.sourceforge.net/DTD/sodipodi-0.dtd"
   xmlns="http://www.w3.org/2000/svg"
   xmlns:svg="http://www.w3.org/2000/svg">
  <sodipodi:namedview
     id="namedview1"
     pagecolor="#ffffff"
     bordercolor="#000000"
     borderopacity="0.25"
     inkscape:showpageshadow="2"
     inkscape:pageopacity="0.0"
     inkscape:pagecheckerboard="0"
     inkscape:deskcolor="#d1d1d1"
     inkscape:document-units="mm"
     inkscape:zoom="16.833558"
     inkscape:cx="1.7524519"
     inkscape:cy="12.623594"
     inkscape:window-width="2560"
     inkscape:window-height="1377"
     inkscape:window-x="-8"
     inkscape:window-y="-8"
     inkscape:window-maximized="1"
     inkscape:current-layer="layer1" />
  <defs
     id="defs1">
    <rect
       x="290.8476"
       y="406.80646"
       width="240.47205"
       height="202.45274"
       id="rect1" />
  </defs>
  <g
     inkscape:label="Layer 1"
     inkscape:groupmode="layer"
     id="layer1">
    <path
       style="font-size:42.6667px;line-height:100%;font-family:Montserrat;-inkscape-font-specification:'Montserrat, @wght=900';font-variation-settings:'wght' 900;text-align:center;text-anchor:middle;white-space:pre;stroke-width:0.08711;stroke-miterlimit:0;stroke-dashoffset:0.185197"
       d="M -3.3333335e-8,6.7978624 2.2746259,1.5944696 H 3.99918 L 6.2738042,6.7978624 H 4.4600509 L 2.7800991,2.4270123 H 3.4639726 L 1.7840207,6.7978624 Z M 1.3528822,5.8909848 1.798887,4.6273036 h 2.3935611 l 0.4460047,1.2636812 z m 6.132574,0.9812123 q -0.4162723,0 -0.6987413,-0.2676029 -0.2824708,-0.2750368 -0.2824708,-0.6987413 0,-0.4311385 0.2824708,-0.6913091 0.282469,-0.2601689 0.6987413,-0.2601689 0.4162705,0 0.6987412,0.2601689 0.2824693,0.2601706 0.2824693,0.6913091 0,0.4237045 -0.2824693,0.6987413 -0.2824707,0.2676029 -0.6987412,0.2676029 z"
       id="text1"
       aria-label="A." />
  </g>
</svg>
